<?xml version="1.0" encoding="utf-8"?>
<!-- Generator: Adobe Illustrator 19.2.1, SVG Export Plug-In . SVG Version: 6.00 Build 0)  -->
<svg version="1.1" id="Layer_1" xmlns="http://www.w3.org/2000/svg" xmlns:xlink="http://www.w3.org/1999/xlink" x="0px" y="0px"
	 viewBox="0 0 25.2 36.8" style="enable-background:new 0 0 25.2 36.8;" xml:space="preserve">
<style type="text/css">
	.st0{fill:#4D5BA3;}
</style>
<g>
	<g>
		<path class="st0" d="M0,1.1v3.3c0,0.9,0.4,1.7,1.1,2.3l14.4,10.8c0.6,0.4,0.6,1.3,0,1.8L1.1,30C0.4,30.6,0,31.4,0,32.3v3.3
			c0,0.9,1.1,1.5,1.8,0.9l22.9-17.1c0.7-0.5,0.7-1.6,0-2.2L1.8,0.2C1.1-0.3,0,0.2,0,1.1z"/>
		<path class="st0" d="M1.8,13.5L7,17.3c0.7,0.5,0.7,1.6,0,2.2l-5.2,3.9c-0.7,0.6-1.8,0-1.8-0.9l0-8.1C0,13.4,1.1,12.9,1.8,13.5z"/>
	</g>
</g>
</svg>
