<?xml version="1.0" encoding="utf-8"?>
<!-- Generator: Adobe Illustrator 19.2.1, SVG Export Plug-In . SVG Version: 6.00 Build 0)  -->
<svg version="1.1" id="Layer_1" xmlns="http://www.w3.org/2000/svg" xmlns:xlink="http://www.w3.org/1999/xlink" x="0px" y="0px"
	 viewBox="0 0 87.2 99" style="enable-background:new 0 0 87.2 99;" xml:space="preserve">
<style type="text/css">
	.st0{fill:#C8C8C8;}
</style>
<path class="st0" d="M69.6,9.6v23.6h-1.3V14.7h-7.5V9.6L43.6-0.3L26.7,9.5l-0.1,0.1v5.1H19v18.5h-1.2V9.6H0v64.2L43.7,99l43.6-25.3
	V9.6H69.6z M22.8,33.2V18.3h3.8v14.8h-3.8V33.2z M60.8,33.2V18.3h3.7v14.8h-3.7V33.2z M56.8,28.2h-3.1V15L43.6,9.1L33.4,15v13.3
	h-3.1V11.7L43.6,4l13.3,7.7L56.8,28.2L56.8,28.2z M37.2,32V17.1l6.4-3.7l6.3,3.7V32h7v5h7.6v22.2l-20.9,12L22.8,59.1V37h7.5v-5H37.2
	z M3.8,13.3H14V37h4.9v24.3l24.6,14.2l24.8-14.3V37h5V13.3h10.2l0.1,58.3L43.7,94.7l-39.9-23V13.3z"/>
</svg>
