<?xml version="1.0" encoding="utf-8"?>
<!-- Generator: Adobe Illustrator 19.2.1, SVG Export Plug-In . SVG Version: 6.00 Build 0)  -->
<svg version="1.1" id="Layer_1" xmlns="http://www.w3.org/2000/svg" xmlns:xlink="http://www.w3.org/1999/xlink" x="0px" y="0px"
	 viewBox="0 0 86.9 104.7" style="enable-background:new 0 0 86.9 104.7;" xml:space="preserve">
<style type="text/css">
	.st0{display:none;}
	.st1{display:inline;fill:#428bca;}
	.st2{display:inline;fill:none;}
	.st3{display:inline;}
	.st4{fill:#428bca;}
	.st5{display:inline;fill:#428bca;}
	.st6{fill:#428bca;}
</style>
<g class="st0">
	<path class="st1" d="M37,47.3v6h-2.4v-6l-4.2-2.4l-4.2,2.4v6h-2.3v-6h-4.4V65l11,6.3l11-6.3V47.3H37z M40.6,64.5l-10.1,5.9
		l-10.1-5.9V48.2H23v6h4v-6.3l3.4-2l3.4,2v6.3h4v-6h2.7V64.5z"/>
	<path class="st1" d="M33.8,48.6v3.4h-0.9v-3.4l-2.5-1.4l-2.5,1.4v3.4H27v-3.4h-2.7v9.9l6.2,3.6l6.2-3.6v-9.9H33.8z M35.8,58.1
		l-5.3,3.1l-5.3-3.1v-8.6h1.1v3.4h2.6v-3.7l1.7-1l1.7,1v3.7h2.6v-3.4h1.1V58.1z"/>
	<path id="SVGID_x5F_1_x5F_" class="st2" d="M19.1,61.4L30,67.7"/>
	<text class="st3">	<textPath  xlink:href="#SVGID_x5F_1_x5F_" startOffset="24.609%">
<tspan  class="st4" style="font-family:'Montserrat-SemiBold'; font-size:3.2245px;">LOGO</tspan>	</textPath>
</text>
	<g class="st3">
		<path class="st4" d="M30.7,64.7l0.9-0.5c0.2-0.1,0.4-0.2,0.6-0.2c0.2,0,0.4,0,0.6,0.1c0.2,0.1,0.3,0.2,0.4,0.4
			c0.1,0.2,0.2,0.4,0.2,0.6c0,0.2-0.1,0.4-0.2,0.6c-0.1,0.2-0.3,0.3-0.5,0.4l-0.9,0.5L30.7,64.7z M32.5,65.9
			c0.1-0.1,0.3-0.2,0.3-0.3c0.1-0.1,0.1-0.2,0.1-0.4c0-0.1,0-0.3-0.1-0.4c-0.1-0.1-0.2-0.2-0.3-0.3c-0.1-0.1-0.2-0.1-0.4-0.1
			c-0.1,0-0.3,0.1-0.4,0.1l-0.5,0.3l0.8,1.3L32.5,65.9z"/>
		<path class="st4" d="M35.1,64.2l-1,0.6l0.1,0.6l-0.4,0.2L33.6,63l0.4-0.2l2,1.4l-0.4,0.2L35.1,64.2z M34.8,63.9L34,63.3l0.1,1.1
			L34.8,63.9z"/>
		<path class="st4" d="M36.7,61.2l0.3,2.4l-0.4,0.2l-2-1.5l0.4-0.2l1.5,1.1l-0.2-1.9L36.7,61.2z"/>
		<path class="st4" d="M39,61.9l-1,0.6l0.1,0.6l-0.4,0.2l-0.2-2.5l0.4-0.2l2,1.4l-0.4,0.2L39,61.9z M38.7,61.7L37.9,61l0.1,1.1
			L38.7,61.7z"/>
	</g>
	<path class="st5" d="M31.5,66.8l-0.9,0.5l-0.9-0.5c0,0,1-0.6,0.5-1.9l0.2-0.1L31.5,66.8z"/>
</g>
<g>
	<path class="st6" d="M69.6,9.8v23.6h-9.4V9.7L43.3,0L26.5,9.7v23.7h-9.3V9.8H0v69.8l43.4,25.1l43.4-25.1V9.8H69.6z M83.6,77.8
		L43.4,101L3.3,77.8V13.1H14v23.6h15.8V11.6l13.5-7.8l13.5,7.8v25.1h16V13.1h10.7V77.8z"/>
	<path class="st6" d="M56.9,14.9v13.6h-3.7V15.1l-9.9-5.7l-9.9,5.7v13.4h-3.6V14.9H18.9v39.2l24.4,14.1l24.4-14.1V14.9H56.9z
		 M64.5,52.2L43.3,64.4L22.2,52.2V18.1h4.3v13.6h10.1V17l6.6-3.8l6.6,3.8v14.7h10.2V18.1h4.4V52.2z"/>
	<g>
		<path class="st4" d="M47.2,85.3l-4.2,2.8l-4.2-2.7c0,0,4.5-1.9,3-6.9l2.2-1C42.2,83.2,47.2,85.3,47.2,85.3z"/>
		<g>
			<path class="st4" d="M11.8,61.2l1.4,0.8l-3.6,6.2l3.8,2.2l-0.7,1.1l-5.2-3L11.8,61.2z"/>
			<path class="st4" d="M15.3,72.5c-0.4-0.7-0.6-1.4-0.6-2.2c0-0.8,0.2-1.5,0.6-2.2s1-1.3,1.6-1.6c0.7-0.4,1.4-0.6,2.2-0.5
				c0.8,0,1.6,0.2,2.3,0.7c0.7,0.4,1.3,1,1.7,1.7s0.6,1.4,0.6,2.2c0,0.8-0.2,1.5-0.6,2.2c-0.4,0.7-1,1.3-1.6,1.6
				c-0.7,0.4-1.4,0.6-2.2,0.5c-0.8,0-1.6-0.2-2.3-0.7C16.3,73.7,15.7,73.2,15.3,72.5z M19.2,73.4c0.5,0,1-0.1,1.5-0.4
				c0.5-0.3,0.8-0.6,1.1-1.1s0.4-1,0.4-1.5c0-0.5-0.1-1-0.4-1.5c-0.3-0.4-0.6-0.8-1.1-1.1c-0.5-0.3-1-0.4-1.5-0.4
				c-0.5,0-1,0.1-1.5,0.4s-0.8,0.6-1.1,1.1c-0.3,0.5-0.4,1-0.4,1.5c0,0.5,0.1,1,0.4,1.5c0.3,0.4,0.6,0.8,1.1,1.1
				C18.2,73.3,18.7,73.4,19.2,73.4z"/>
			<path class="st4" d="M29.6,76.3l1.3,0.7L29.2,80c-0.6,0.1-1.1,0.1-1.7-0.1c-0.6-0.1-1.2-0.3-1.7-0.7c-0.7-0.4-1.3-1-1.7-1.7
				c-0.4-0.7-0.6-1.4-0.6-2.2c0-0.8,0.2-1.5,0.6-2.2c0.4-0.7,1-1.3,1.6-1.6c0.7-0.4,1.4-0.6,2.2-0.5c0.8,0,1.6,0.3,2.3,0.7
				c0.6,0.4,1.1,0.8,1.5,1.3c0.4,0.5,0.6,1,0.8,1.6L31.1,75c-0.2-0.9-0.7-1.5-1.5-2c-0.5-0.3-1-0.5-1.6-0.5c-0.5,0-1,0.1-1.5,0.4
				c-0.5,0.3-0.8,0.6-1.1,1.1c-0.3,0.5-0.4,1-0.4,1.5c0,0.5,0.1,1,0.4,1.5c0.3,0.5,0.7,0.8,1.2,1.1c0.6,0.3,1.1,0.5,1.7,0.5
				L29.6,76.3z"/>
			<path class="st4" d="M32.2,82.3c-0.4-0.7-0.6-1.4-0.6-2.2c0-0.8,0.2-1.5,0.6-2.2c0.4-0.7,1-1.3,1.6-1.6c0.7-0.4,1.4-0.6,2.2-0.5
				c0.8,0,1.6,0.2,2.3,0.7c0.7,0.4,1.3,1,1.7,1.7c0.4,0.7,0.6,1.4,0.6,2.2c0,0.8-0.2,1.5-0.6,2.2c-0.4,0.7-1,1.3-1.6,1.6
				c-0.7,0.4-1.4,0.6-2.2,0.5c-0.8,0-1.6-0.2-2.3-0.7C33.2,83.5,32.6,83,32.2,82.3z M36.1,83.2c0.5,0,1-0.1,1.5-0.4
				c0.5-0.3,0.8-0.6,1.1-1.1c0.3-0.5,0.4-1,0.4-1.5c0-0.5-0.1-1-0.4-1.5c-0.3-0.4-0.6-0.8-1.1-1.1c-0.5-0.3-1-0.4-1.5-0.4
				c-0.5,0-1,0.1-1.5,0.4c-0.4,0.3-0.8,0.6-1.1,1.1c-0.3,0.5-0.4,1-0.4,1.5c0,0.5,0.1,1,0.4,1.5c0.3,0.4,0.6,0.8,1.1,1.1
				C35.1,83,35.6,83.2,36.1,83.2z"/>
		</g>
		<g>
			<path class="st4" d="M71.8,71.6l-1.4,0.8l-0.9-9.2l1.3-0.8l7.5,5.4l-1.4,0.8l-1.7-1.3l-3.7,2.1L71.8,71.6z M74.1,66.6l-3.2-2.4
				l0.5,4L74.1,66.6z"/>
			<path class="st4" d="M60.2,68.5l5.7,4.2l-0.8-7.1l1.5-0.8l1,9.2l-1.3,0.8l-7.4-5.5L60.2,68.5z"/>
			<path class="st4" d="M57.1,80.1L55.6,81l-0.9-9.2l1.3-0.8l7.5,5.4l-1.4,0.8l-1.7-1.3L56.8,78L57.1,80.1z M59.4,75.1l-3.2-2.4
				l0.5,4L59.4,75.1z"/>
			<path class="st4" d="M54.7,81.5l-3.2,1.8c-0.8,0.4-1.6,0.7-2.3,0.7c-0.8,0-1.5-0.1-2.2-0.5c-0.7-0.4-1.2-0.9-1.6-1.6
				s-0.6-1.5-0.6-2.2s0.2-1.4,0.7-2.1c0.4-0.7,1-1.2,1.8-1.7l3.2-1.8L54.7,81.5z M52.7,81.1l-2.9-5l-1.8,1c-0.5,0.3-1,0.7-1.2,1.1
				c-0.3,0.4-0.4,0.9-0.4,1.4c0,0.5,0.1,1,0.4,1.5c0.3,0.5,0.7,0.9,1.1,1.1c0.4,0.3,0.9,0.4,1.4,0.3c0.5,0,1.1-0.2,1.6-0.5
				L52.7,81.1z"/>
		</g>
	</g>
</g>
</svg>
